<svg width="167" height="167" viewBox="0 0 167 167" fill="none" xmlns="http://www.w3.org/2000/svg">
<path fill-rule="evenodd" clip-rule="evenodd" d="M83.5 167C129.616 167 167 129.616 167 83.5C167 37.3842 129.616 0 83.5 0C37.3842 0 0 37.3842 0 83.5C0 129.616 37.3842 167 83.5 167ZM31 45.5493C31 35.7254 40.1321 28.3921 54.9371 26.1783C66.283 24.5179 104.887 24.6562 115.818 26.3166C133.528 29.0839 141 34.7569 141 45.411C141 50.5305 140.17 52.8827 137.264 56.4802L133.39 61.0462V97.5745C133.39 97.5745 133.736 132.406 133.39 134.241C133.044 136.077 132.698 137.075 131.142 138.632C129.585 140.189 128.547 140.52 126.61 141.021C121.802 142.264 86.3459 141.021 86.3459 141.021C86.3459 141.021 47.6038 141.227 46.0818 141.021C44.0398 140.745 42.934 140.189 41.3774 138.632C39.8208 137.075 39.544 136.122 39.3019 134.241C38.2642 126.179 39.3019 97.7129 39.3019 97.7129C39.3019 66.1657 39.0252 60.9078 37.0881 59.2474C33.7673 56.4802 31 50.2537 31 45.5493ZM132.006 54.543C141.138 43.0588 134.774 34.6185 114.434 31.7129C103.088 30.0525 76.1069 30.1908 65.8679 31.8512C48.2956 34.7569 42.8994 43.4739 51.7547 54.543L55.9057 59.8009V95.9141C55.9057 122.342 56.3208 132.581 57.566 133.826C58.8113 135.071 68.3585 135.486 91.8805 135.486C115.403 135.486 124.95 135.071 126.195 133.826C127.44 132.581 127.855 122.342 127.855 95.9141V59.8009L132.006 54.543ZM70.2956 48.4551C68.9119 50.8073 72.0943 53.4362 74.0314 51.4991C75.6918 49.8387 74.5849 46.933 72.5094 46.933C71.8176 46.933 70.849 47.6249 70.2956 48.4551ZM115.541 51.4991C113.604 53.4362 110.422 50.8073 111.805 48.4551C112.359 47.6249 113.327 46.933 114.019 46.933C116.095 46.933 117.201 49.8387 115.541 51.4991ZM86.8994 62.7065C85.5158 66.304 87.4529 69.348 90.7736 68.7946C95.3397 68.2411 95.3397 61.5996 90.7736 61.0462C88.9749 60.7694 87.3145 61.4613 86.8994 62.7065ZM112.912 82.6311C109.591 83.1846 107.654 80.1406 109.038 76.5431C109.453 75.2978 111.113 74.606 112.912 74.8827C115.264 75.1594 116.094 76.2664 116.094 78.7569C116.094 81.2475 115.264 82.3544 112.912 82.6311ZM70.2958 82.0777C68.9121 85.6752 70.8492 88.7192 74.17 88.1658C78.736 87.6123 78.736 80.9708 74.17 80.4173C72.3712 80.1406 70.7109 80.8324 70.2958 82.0777ZM90.6353 104.078C88.6982 106.015 85.5158 103.386 86.8994 101.034C87.4529 100.203 88.4214 99.5116 89.1133 99.5116C91.1887 99.5116 92.2957 102.417 90.6353 104.078ZM103.503 115.285C102.119 118.883 104.057 121.927 107.377 121.373C109.729 121.097 110.56 119.99 110.56 117.499C110.56 115.008 109.729 113.902 107.377 113.625C105.579 113.348 103.918 114.04 103.503 115.285ZM71.2641 123.449C69.327 125.386 66.1446 122.757 67.5282 120.405C68.0817 119.575 69.0503 118.883 69.7421 118.883C71.8176 118.883 72.9245 121.788 71.2641 123.449Z" fill="#F7382E"/>
</svg>
