<svg width="167" height="167" viewBox="0 0 167 167" fill="none" xmlns="http://www.w3.org/2000/svg">
<path fill-rule="evenodd" clip-rule="evenodd" d="M83.5 167C129.616 167 167 129.616 167 83.5C167 37.3842 129.616 0 83.5 0C37.3842 0 0 37.3842 0 83.5C0 129.616 37.3842 167 83.5 167ZM30 46.8442C30 37.3574 38.8187 30.2757 53.1158 28.1378C64.0724 26.5344 101.352 26.668 111.907 28.2714C129.01 30.9438 136.226 36.4221 136.226 46.7106C136.226 51.6544 135.424 53.9259 132.618 57.4L128.877 61.8094V97.0843C128.877 97.0843 129.211 130.72 128.877 132.493C128.543 134.265 128.209 135.23 126.705 136.733C125.202 138.236 124.2 138.557 122.329 139.04C117.686 140.241 83.4468 139.04 83.4468 139.04C83.4468 139.04 46.034 139.239 44.5643 139.04C42.5924 138.774 41.5245 138.236 40.0213 136.733C38.5181 135.23 38.2509 134.309 38.017 132.493C37.0149 124.707 38.017 97.2179 38.017 97.2179C38.017 66.7532 37.7498 61.6757 35.8792 60.0723C32.6723 57.4 30 51.3872 30 46.8442ZM123.532 57.4C130 46.7106 123 40 110.9 36.8664C99.943 35.263 73.8877 35.3966 64 37C47 39.7567 41.5 45 50.0426 55.5294L54.0511 60.6068V95.4809C54.0511 107.1 53.8018 114.423 53.6437 119.067C53.4546 124.624 53.396 126.345 54.0511 127C55.2536 128.203 64.4732 128.603 87.1881 128.603C109.903 128.603 116.717 128.603 117.92 127.401C118.758 126.563 118.721 122.48 118.622 111.448C118.579 106.647 118.523 100.529 118.523 92.7897V62.4774L123.532 57.4Z" fill="#F7382E"/>
</svg>
